<svg width="32" height="32" viewBox="0 0 32 32" fill="none" xmlns="http://www.w3.org/2000/svg">
<rect width="32" height="32" fill="white"/>
<rect width="32" height="32" fill="#FB923C"/>
<path d="M11.017 16.6364C11.017 17.608 10.8281 18.4276 10.4503 19.0952C10.0724 19.7599 9.5625 20.2642 8.92045 20.608C8.27841 20.9489 7.5625 21.1193 6.77273 21.1193C5.97727 21.1193 5.25852 20.9474 4.61648 20.6037C3.97727 20.2571 3.46875 19.7514 3.09091 19.0866C2.71591 18.419 2.52841 17.6023 2.52841 16.6364C2.52841 15.6648 2.71591 14.8466 3.09091 14.1818C3.46875 13.5142 3.97727 13.0099 4.61648 12.669C5.25852 12.3253 5.97727 12.1534 6.77273 12.1534C7.5625 12.1534 8.27841 12.3253 8.92045 12.669C9.5625 13.0099 10.0724 13.5142 10.4503 14.1818C10.8281 14.8466 11.017 15.6648 11.017 16.6364ZM8.57955 16.6364C8.57955 16.1136 8.50994 15.6733 8.37074 15.3153C8.23438 14.9545 8.03125 14.6818 7.76136 14.4972C7.49432 14.3097 7.16477 14.2159 6.77273 14.2159C6.38068 14.2159 6.04972 14.3097 5.77983 14.4972C5.51278 14.6818 5.30966 14.9545 5.17045 15.3153C5.03409 15.6733 4.96591 16.1136 4.96591 16.6364C4.96591 17.1591 5.03409 17.6009 5.17045 17.9616C5.30966 18.3196 5.51278 18.5923 5.77983 18.7798C6.04972 18.9645 6.38068 19.0568 6.77273 19.0568C7.16477 19.0568 7.49432 18.9645 7.76136 18.7798C8.03125 18.5923 8.23438 18.3196 8.37074 17.9616C8.50994 17.6009 8.57955 17.1591 8.57955 16.6364ZM14.9599 21.1364C14.3349 21.1364 13.7965 21.0256 13.3448 20.804C12.8931 20.5824 12.5465 20.2855 12.305 19.9134C12.0636 19.5412 11.9428 19.1307 11.9428 18.6818C11.9428 18.3551 12.0053 18.0668 12.1303 17.8168C12.2553 17.5639 12.43 17.3324 12.6545 17.1222C12.8789 16.9119 13.1417 16.7045 13.4428 16.5L15.4201 15.2727C15.619 15.1477 15.7539 15.0185 15.8249 14.8849C15.896 14.7486 15.9315 14.6278 15.9315 14.5227C15.9315 14.3835 15.8803 14.2599 15.7781 14.152C15.6758 14.044 15.5167 13.9915 15.3008 13.9943C15.1673 13.9943 15.0522 14.0199 14.9556 14.071C14.859 14.1193 14.7837 14.1875 14.7298 14.2756C14.6786 14.3636 14.6531 14.4687 14.6531 14.5909C14.6531 14.7585 14.7013 14.9304 14.7979 15.1065C14.8945 15.2798 15.0266 15.4673 15.1942 15.669C15.3619 15.8707 15.5508 16.0966 15.761 16.3466L19.9883 21H17.636L14.0906 17.25C13.9173 17.0653 13.7255 16.8395 13.5153 16.5724C13.305 16.3026 13.1232 15.9986 12.9698 15.6605C12.8192 15.3224 12.744 14.9545 12.744 14.5568C12.744 14.1136 12.8505 13.7088 13.0636 13.3423C13.2766 12.9759 13.5749 12.6832 13.9585 12.4645C14.342 12.2457 14.7894 12.1364 15.3008 12.1364C15.7894 12.1364 16.2099 12.2372 16.5621 12.4389C16.9173 12.6406 17.19 12.9091 17.3803 13.2443C17.5735 13.5795 17.6701 13.9489 17.6701 14.3523C17.6701 14.7585 17.5692 15.1378 17.3675 15.4901C17.1687 15.8423 16.8832 16.1506 16.511 16.4148L14.7042 17.6932C14.565 17.7898 14.4442 17.9006 14.342 18.0256C14.2425 18.1506 14.1928 18.3125 14.1928 18.5114C14.1928 18.6761 14.2312 18.8168 14.3079 18.9332C14.3846 19.0497 14.4925 19.1392 14.6317 19.2017C14.7738 19.2642 14.94 19.2955 15.1303 19.2955C15.4201 19.2955 15.7099 19.2259 15.9996 19.0866C16.2923 18.9446 16.5593 18.7472 16.8008 18.4943C17.0423 18.2386 17.2354 17.9375 17.3803 17.5909C17.5281 17.2415 17.6019 16.8608 17.6019 16.4489H19.4599C19.4599 16.9545 19.4073 17.4418 19.3022 17.9105C19.1971 18.3793 19.0281 18.8082 18.7951 19.1974C18.5621 19.5866 18.2553 19.9148 17.8746 20.1818C17.7553 20.2415 17.6388 20.2983 17.5252 20.3523C17.4116 20.4062 17.2951 20.4631 17.1758 20.5227C16.8263 20.7472 16.4613 20.9062 16.0806 21C15.6999 21.0909 15.3263 21.1364 14.9599 21.1364ZM23.8384 21H20.4805V12.2727H23.8043C24.7021 12.2727 25.4776 12.4474 26.131 12.7969C26.7873 13.1435 27.293 13.6435 27.6481 14.2969C28.006 14.9474 28.185 15.7273 28.185 16.6364C28.185 17.5455 28.0075 18.3267 27.6523 18.9801C27.2972 19.6307 26.7944 20.1307 26.1438 20.4801C25.4933 20.8267 24.7248 21 23.8384 21ZM22.8498 18.9886H23.7532C24.185 18.9886 24.5529 18.919 24.8569 18.7798C25.1637 18.6406 25.3967 18.4006 25.5558 18.0597C25.7177 17.7187 25.7987 17.2443 25.7987 16.6364C25.7987 16.0284 25.7163 15.554 25.5515 15.2131C25.3896 14.8722 25.1509 14.6321 24.8356 14.4929C24.5231 14.3537 24.1396 14.2841 23.685 14.2841H22.8498V18.9886Z" fill="white"/>
</svg>
